<svg xmlns:dc="http://purl.org/dc/elements/1.1/"
   xmlns:cc="http://creativecommons.org/ns#"
   xmlns:rdf="http://www.w3.org/1999/02/22-rdf-syntax-ns#"
   xmlns:svg="http://www.w3.org/2000/svg"
   xmlns="http://www.w3.org/2000/svg"
   viewBox="0 0 670.27502 669.95001"
   height="50"
   width="50"
   xml:space="preserve"
   version="1.1"
   id="svg2"><metadata
     id="metadata8"><rdf:RDF><cc:Work
         rdf:about=""><dc:format>image/svg+xml</dc:format><dc:type
           rdf:resource="http://purl.org/dc/dcmitype/StillImage" /></cc:Work></rdf:RDF></metadata><defs
     id="defs6"><clipPath
       id="clipPath18"
       clipPathUnits="userSpaceOnUse"><path
         id="path20"
         d="m 0,0 5362,0 0,5359.61 -5362,0 L 0,0 Z" /></clipPath></defs><g
     transform="matrix(1.25,0,0,-1.25,0,669.95)"
     id="g10"><g
       transform="scale(0.1,0.1)"
       id="g12"><g
         id="g14"><g
           clip-path="url(#clipPath18)"
           id="g16"><path
             id="path22"
             style="fill:lightblue;fill-opacity:1;fill-rule:nonzero;stroke:none"
             d="m 904.578,5037.46 c 0,0 352.322,138.2 596.512,155.45 107.37,7.59 579.82,-217.72 552.76,-242.41 -404.62,-364.38 -923.05,-508.11 -446.69,-2722.79 0,0 -942.379,911.35 -702.582,2809.75" /><path
             id="path24"
             style="fill:#3a9fc0;fill-opacity:1;fill-rule:nonzero;stroke:none"
             d="m 5362.22,2681.11 c 0,1442.25 -1138.83,2618.32 -2566.27,2678.5 C 1933.48,3841.77 1964.6,718.309 1964.6,718.309 844.77,2185.97 504.152,3354.09 469.383,4196.72 173.363,3765.57 0,3243.62 0,2681.11 0,1200.38 1200.37,0 2681.11,0 2771.5,0 2860.82,4.55078 2948.91,13.2891 2641.4,391.738 2156.94,1351.19 2826.54,3240.39 c 0,0 596.89,-1921.18 1430.55,-2728.288 669.7,487.437 1105.13,1277.308 1105.13,2169.008" /><path
             id="path26"
             style="fill:lightblue;fill-opacity:1;fill-rule:nonzero;stroke:none"
             d="m 3034.5,294.781 c 0,0 250.8,-15.73 408.66,23 69.41,17.028 322.24,255.489 300.12,265.59 -329.84,148.078 -686.75,133.539 -835.85,1630.269 0,0 -410.41,-767.63 127.07,-1918.859" /></g></g></g></g></svg>