<?xml version="1.0" encoding="utf-8"?>
<!-- Generator: Adobe Illustrator 18.0.0, SVG Export Plug-In . SVG Version: 6.00 Build 0)  -->
<!DOCTYPE svg PUBLIC "-//W3C//DTD SVG 1.1//EN" "http://www.w3.org/Graphics/SVG/1.1/DTD/svg11.dtd">
<svg version="1.1"
	 id="svg2" xmlns:rdf="http://www.w3.org/1999/02/22-rdf-syntax-ns#" xmlns:svg="http://www.w3.org/2000/svg" xmlns:dc="http://purl.org/dc/elements/1.1/" xmlns:cc="http://creativecommons.org/ns#"
	 xmlns="http://www.w3.org/2000/svg" xmlns:xlink="http://www.w3.org/1999/xlink" x="0px" y="0px" viewBox="310.1 310 50 50"
	 enable-background="new 310.1 310 50 50" xml:space="preserve">
<g id="g10" transform="matrix(1.25,0,0,-1.25,0,669.95)">
	<g id="g12" transform="scale(0.1,0.1)">
		<g id="g14">
			<g>
				<defs>
					<rect id="SVGID_1_" x="2656.8" y="2655.7" width="48.3" height="48.3"/>
				</defs>
				<clipPath id="SVGID_2_">
					<use xlink:href="#SVGID_1_"  overflow="visible"/>
				</clipPath>
				<g id="g16" clip-path="url(#SVGID_2_)">
					<path id="path22" fill="#1B1919" d="M2552.9,2849.8c0,0,25.4,10,43,11.2c7.7,0.5,41.8-15.7,39.9-17.5
						c-29.2-26.3-66.5-36.6-32.2-196.3C2603.6,2647.2,2535.6,2712.9,2552.9,2849.8"/>
					<path id="path24" fill="#1B1919" d="M2874.3,2679.9c0,104-82.1,188.8-185,193.1c-62.2-109.4-59.9-334.6-59.9-334.6
						c-80.7,105.8-105.3,190-107.8,250.8c-21.3-31.1-33.8-68.7-33.8-109.3c0-106.8,86.5-193.3,193.3-193.3c6.5,0,13,0.3,19.3,1
						c-22.2,27.3-57.1,96.5-8.8,232.7c0,0,43-138.5,103.1-196.7C2842.9,2558.7,2874.3,2615.6,2874.3,2679.9"/>
					<path id="path26" fill="#1B1919" d="M2706.5,2507.9c0,0,18.1-1.1,29.5,1.7c5,1.2,23.2,18.4,21.6,19.1
						c-23.8,10.7-49.5,9.6-60.3,117.5C2697.3,2646.2,2667.7,2590.9,2706.5,2507.9"/>
				</g>
			</g>
		</g>
	</g>
</g>
</svg>
